<svg xmlns="http://www.w3.org/2000/svg" width="24.75" height="24.75" viewBox="0 0 24.75 24.75">
  <defs>
    <style>
      .cls-1 {
        fill: #fff;
      }
    </style>
  </defs>
  <path id="Icon_ionic-ios-resize" data-name="Icon ionic-ios-resize" class="cls-1" d="M29.412,5.625h-7.77a.965.965,0,0,0-.963.963V6.6a.965.965,0,0,0,.963.963h5.379L7.566,27.021V21.642a.965.965,0,0,0-.963-.963H6.588a.965.965,0,0,0-.963.963v7.77a.965.965,0,0,0,.963.963h7.77a.965.965,0,0,0,.963-.963V29.4a.965.965,0,0,0-.963-.963H8.979L28.434,8.979v5.379a.965.965,0,0,0,.963.963h.014a.965.965,0,0,0,.963-.963V6.588A.96.96,0,0,0,29.412,5.625Z" transform="translate(-5.625 -5.625)"/>
</svg>
